<svg id="Layer_1" data-name="Layer 1" xmlns="http://www.w3.org/2000/svg" xmlns:xlink="http://www.w3.org/1999/xlink" viewBox="0 0 925 643"><defs><style>.cls-1{fill:url(#radial-gradient);}.cls-2{fill:url(#radial-gradient-2);}.cls-3{fill:url(#radial-gradient-3);}.cls-4{fill:none;stroke:#000;stroke-miterlimit:10;stroke-width:10px;}.cls-5{font-size:72px;font-family:MyriadPro-Regular, Myriad Pro;}</style><radialGradient id="radial-gradient" cx="461" cy="145" fx="420.9415367545995" fy="102.75143340534831" r="144.5" gradientUnits="userSpaceOnUse"><stop offset="0" stop-color="#fff"/><stop offset="1" stop-color="#d4b700"/></radialGradient><radialGradient id="radial-gradient-2" cx="820.5" cy="537.5" fx="791.6689953112689" fy="507.0927271567905" r="104" gradientUnits="userSpaceOnUse"><stop offset="0" stop-color="#fff"/><stop offset="1" stop-color="#8f8f8f"/></radialGradient><radialGradient id="radial-gradient-3" cx="104.5" cy="538.5" fx="75.66899531126887" fy="508.0927271567905" xlink:href="#radial-gradient-2"/></defs><circle class="cls-1" cx="461" cy="145" r="144.5"/><path d="M663,61a144,144,0,1,1-101.82,42.18A143,143,0,0,1,663,61m0-1A145,145,0,1,0,808,205,145,145,0,0,0,663,60Z" transform="translate(-202 -60)"/><circle class="cls-2" cx="820.5" cy="537.5" r="104"/><path d="M1022.5,494A103.5,103.5,0,1,1,919,597.5,103.62,103.62,0,0,1,1022.5,494m0-1A104.5,104.5,0,1,0,1127,597.5,104.5,104.5,0,0,0,1022.5,493Z" transform="translate(-202 -60)"/><circle class="cls-3" cx="104.5" cy="538.5" r="104"/><path d="M306.5,495A103.5,103.5,0,1,1,203,598.5,103.62,103.62,0,0,1,306.5,495m0-1A104.5,104.5,0,1,0,411,598.5,104.5,104.5,0,0,0,306.5,494Z" transform="translate(-202 -60)"/><line class="cls-4" x1="178" y1="464" x2="363.5" y2="252.5"/><line class="cls-4" x1="754" y1="457" x2="555.25" y2="252.5"/><text class="cls-5" transform="translate(799.14 563.56)">H</text><text class="cls-5" transform="translate(77.43 563.91)">H</text><text class="cls-5" transform="translate(445.43 171.91)">S</text></svg>