<svg id="Layer_1" data-name="Layer 1" xmlns="http://www.w3.org/2000/svg" viewBox="0 0 387.7 113.75"><defs><style>.cls-1{fill:#003847;}</style></defs><path class="cls-1" d="M193,37.14H173.19V90.41H161.43V37.14H141.59v-11H193Zm38.4,33.34H197c.83,7.35,5.42,11.94,13,11.94,5.06,0,8.64-2.2,10.48-5.78h11c-2.66,8.08-10.84,14.78-21.68,14.78-14.24,0-23.51-10.65-23.51-23.88s9.55-23.7,22.68-23.7S232.53,53.76,231.43,70.48Zm-11-7.71c-.74-6.53-5.24-10.29-11.67-10.29a11.24,11.24,0,0,0-11.67,10.29Zm62.73-17.92H270.65l-16.9,18h-2.94V24.28H239.42V90.41h11.39V75.72l5.15-5L270.1,90.41h14L264.59,65Zm34.54-1A14.2,14.2,0,0,0,304.46,52h-2.94V44.85H290.13V90.41h11.39v-27c0-5.42,2.94-9.55,9.64-9.55s9.65,3.76,9.65,9.55v27H332.2V58.63C332.2,50.36,326.78,43.84,317.68,43.84Zm69.36,1V90.41H375.65V82.15h-2.94c-2.76,5.69-7.54,9.27-13.51,9.27-11.66,0-19.38-10.47-19.38-23.79,0-13.5,7.72-23.79,19.38-23.79,6,0,10.75,3.59,13.51,9.28h2.94V44.85ZM375.65,67.63c0-8.54-4.41-14.51-12.13-14.51s-12.31,5.79-12.31,14.51,4.59,14.52,12.31,14.52S375.65,76.18,375.65,67.63Zm-331,16.93a59.91,59.91,0,0,1-24,15.48,56.5,56.5,0,0,0,13.08,8.35A73.75,73.75,0,0,0,52.4,95.18,80.77,80.77,0,0,1,44.66,84.56Zm30-42V2.75A56.13,56.13,0,0,0,61.06.2V43.45a52.15,52.15,0,0,0,7.85,27.6A73.15,73.15,0,0,0,74.66,42.55ZM41,77.79a80.27,80.27,0,0,1-5.51-14.9h0A39,39,0,0,1,7,82.85a56.84,56.84,0,0,0,7.76,11.37A52.68,52.68,0,0,0,41,77.79ZM82,5.65v38.7c0,6.89.5,12,6.72,19.62A32.12,32.12,0,0,0,110.8,76.06,56.81,56.81,0,0,0,82,5.65ZM45.9,71.05a52.15,52.15,0,0,0,7.85-27.6V.2a56.13,56.13,0,0,0-13.6,2.55v39.8A73.15,73.15,0,0,0,45.9,71.05ZM57.41,89.8a74.86,74.86,0,0,0,7.78-11.2A59.91,59.91,0,0,1,57.41,64,59.94,59.94,0,0,1,49.62,78.6,74.19,74.19,0,0,0,57.41,89.8ZM42.9,111.68a57.19,57.19,0,0,0,29,0,81.37,81.37,0,0,1-14.5-11.19A81.8,81.8,0,0,1,42.9,111.68ZM26.12,64c6.22-7.65,6.72-12.73,6.72-19.62V5.65A56.81,56.81,0,0,0,4,76.06,32.12,32.12,0,0,0,26.12,64Zm53.25-1.08a79.56,79.56,0,0,1-5.51,14.9,52.68,52.68,0,0,0,26.21,16.43,56.84,56.84,0,0,0,7.76-11.37A39,39,0,0,1,79.37,62.89ZM70.15,84.56a80.77,80.77,0,0,1-7.74,10.62,73.75,73.75,0,0,0,18.66,13.21A56.5,56.5,0,0,0,94.15,100,59.91,59.91,0,0,1,70.15,84.56Z"/></svg>