<?xml version="1.0" encoding="UTF-8" standalone="no"?>
<svg width="217px" height="58px" viewBox="0 0 217 58" version="1.1" xmlns="http://www.w3.org/2000/svg" xmlns:xlink="http://www.w3.org/1999/xlink">
    <!-- Generator: Sketch 39.1 (31720) - http://www.bohemiancoding.com/sketch -->
    <title>vectron-logo</title>
    <desc>Created with Sketch.</desc>
    <defs>
        <polygon id="path-1" points="3.52585148e-20 0.32103892 3.52585148e-20 24.6492901 55.2167415 24.6492901 55.2167415 0.32103892 0 0.32103892"></polygon>
        <polygon id="path-3" points="0 57.5781688 216.474663 57.5781688 216.474663 0 0 0"></polygon>
        <polygon id="path-5" points="3.52907807e-20 0.321376111 3.52907807e-20 24.6718906 55.2672718 24.6718906 55.2672718 0.321376111 0 0.321376111"></polygon>
        <polygon id="path-7" points="0 57.63086 216.672764 57.63086 216.672764 0 0 0"></polygon>
    </defs>
    <g id="Symbols" stroke="none" stroke-width="1" fill="none" fill-rule="evenodd">
        <g id="Header" transform="translate(-1185.000000, -10.000000)">
            <g id="vectron-logo" transform="translate(1185.000000, 10.000000)">
                <g id="Group-3" transform="translate(0.000000, 29.393961)">
                    <mask id="mask-2" fill="white">
                        <use xlink:href="#path-1"></use>
                    </mask>
                    <g id="Clip-2"></g>
                    <path d="M21.5611792,8.69560863 C21.5611792,8.69560863 42.9859469,1.92966432 44.6869722,10.9217275 C46.387564,19.913357 21.808333,21.5571467 -0.000173441279,18.9598636 C-0.000173441279,18.9598636 12.8123675,24.5819626 27.0024658,24.6487375 C40.4814548,24.7120436 58.4928981,19.3392664 54.7040733,6.59306672 C53.2341585,1.64912305 44.0166217,-0.581331809 36.5248256,0.657038927 C26.8927642,2.24966348 21.5611792,8.69560863 21.5611792,8.69560863" id="Fill-1" fill="#169E49" mask="url(#mask-2)"></path>
                </g>
                <path d="M29.9705664,23.3731636 C29.9705664,23.3731636 33.8040523,46.6225336 24.6528568,46.6225336 C15.5016612,46.6225336 19.3351471,21.1470448 24.0345386,0.000216801599 C24.0345386,0.000216801599 17.4324963,13.8945977 14.7298475,27.8249677 C12.162483,41.0576701 13.4034554,58.8592494 26.6313881,57.5051066 C31.7626484,56.9800132 34.741936,48.1540201 34.9171117,40.5629288 C35.1425853,30.8025208 29.9705664,23.3731636 29.9705664,23.3731636" id="Fill-4" fill="#7DC46E"></path>
                <path d="M70.0578759,23.2474621 L70.0578759,24.484532 L70.157171,24.4927705 C70.4884439,24.5213883 70.8227519,24.5595453 71.1505559,24.6081089 C71.4718559,24.6553717 71.7931559,24.7273498 72.1036158,24.8210081 C72.4192789,24.9233384 72.6742376,25.0469153 72.8615542,25.1887036 C73.0323938,25.3179173 73.1156456,25.4722801 73.1156456,25.6600303 C73.1156456,25.8629566 73.0891958,26.1352594 73.0371635,26.4691338 C72.9846975,26.8017075 72.7986817,27.4096192 72.484753,28.276392 C72.1543473,29.1882595 71.5061106,30.8758431 70.5573868,33.2918802 C69.6481209,35.6086221 68.8312124,37.6521939 68.1270408,39.3722978 C66.6957167,35.5435816 65.5878605,32.5812045 64.8034723,30.4864675 C64.00174,28.3449013 63.4220125,26.8004067 63.0660243,25.8577533 C63.0374065,25.7723335 63.004019,25.6587295 62.9667292,25.516074 C62.9303065,25.3812234 62.9120952,25.2637169 62.9120952,25.167457 C62.9120952,24.9562923 63.1345336,24.8014959 63.5724728,24.7082712 C64.0620108,24.6033393 64.6733914,24.5309275 65.3892702,24.4932041 L65.4920342,24.4875672 L65.4920342,23.2474621 L56.7653362,23.2474621 L56.7653362,24.4858328 L56.8663658,24.4932041 C57.1295629,24.511849 57.420077,24.5617134 57.7309705,24.64193 C58.037528,24.7208457 58.3198037,24.8405202 58.5691255,24.9979182 C58.8774174,25.1939068 59.1276064,25.4037708 59.3131886,25.6218732 C59.4979036,25.8386748 59.6474967,26.0936335 59.7580655,26.3798116 C60.2194193,27.5899981 61.0818561,29.8885287 62.3952402,33.4076522 C63.6899793,36.8764778 65.0328484,40.480154 66.4242811,44.2186808 L66.4502973,44.2893581 L67.8027056,44.2893581 L67.829589,44.2204152 C69.1919703,40.7182022 70.537441,37.2983737 71.829145,34.0545882 C73.1186809,30.8173067 74.0981905,28.4017033 74.7403568,26.8780216 C74.9307086,26.4496217 75.1258301,26.0736877 75.3205179,25.7606262 C75.5091353,25.4575376 75.7627932,25.2060477 76.0754211,25.0126607 C76.2978595,24.8739077 76.585772,24.7537996 76.9317874,24.6558053 C77.2799708,24.5569437 77.5787234,24.5023097 77.8193731,24.4932041 L77.9238715,24.4893016 L77.9238715,23.2474621 L70.0578759,23.2474621 Z" id="Fill-6" fill="#57585A"></path>
                <path d="M97.5884703,37.8309685 C97.4553542,38.267607 97.1435935,38.9609385 96.6609931,39.8923181 C96.1805608,40.8206626 95.7161717,41.521799 95.2804005,41.9762151 C95.1308074,42.1344803 94.8680439,42.2632604 94.498614,42.3586531 C94.1140079,42.4583819 93.7363395,42.528192 93.3764489,42.5659155 C93.0252303,42.6040725 92.585123,42.6235847 92.0691352,42.6235847 L90.8086507,42.6235847 C90.0138561,42.6235847 89.3942371,42.5971349 88.9667043,42.5446689 C88.5526133,42.4943709 88.2235085,42.3820677 87.9884955,42.2099272 C87.759553,42.04299 87.6030223,41.7915002 87.5228057,41.4619617 C87.4378195,41.114212 87.3953263,40.631178 87.3953263,40.0258679 L87.3953263,33.9710329 L89.6054019,33.9710329 C90.2198176,33.9710329 90.7188949,34.0278349 91.0883248,34.1401381 C91.4469146,34.2489725 91.7725506,34.4857199 92.0569943,34.8430089 C92.2317364,35.0637129 92.4034433,35.4301076 92.5673453,35.9326537 C92.7329817,36.4382351 92.8366129,36.9251715 92.8743364,37.379154 L92.8825748,37.4784491 L94.1777476,37.4784491 L94.1777476,29.2035657 L92.8856101,29.2035657 L92.8743364,29.299392 C92.8275072,29.7056782 92.7290793,30.1449182 92.5820878,30.6049712 C92.4363971,31.059821 92.2590534,31.4266493 92.0569943,31.6941825 C91.8085397,32.0063768 91.5188928,32.2314168 91.1949912,32.3636658 C90.8667536,32.4980828 90.3321208,32.5657249 89.6054019,32.5657249 L87.3953263,32.5657249 L87.3953263,24.6091062 L90.5185702,24.6091062 C91.0440973,24.6091062 91.5201936,24.6186455 91.933851,24.637724 C92.3444733,24.6568025 92.7021959,24.685854 92.9970461,24.724011 C93.5446869,24.7968564 94.1378561,25.2391316 94.7592095,26.0382623 C95.3892349,26.8486667 95.8046268,27.623082 95.9932442,28.3393945 L96.0144907,28.4204783 L97.2931866,28.4204783 L97.2931866,23.2475921 L81.1640148,23.2475921 L81.1640148,24.4855293 L81.2646107,24.4929005 C81.5187022,24.5115455 81.8668856,24.5696483 82.3000552,24.6646074 C82.7293223,24.7586993 83.0749041,24.8679673 83.3289955,24.990677 C83.6403226,25.1328989 83.8462842,25.316313 83.9408097,25.5365834 C84.040972,25.7681275 84.0917036,26.0386959 84.0917036,26.3409174 L84.0917036,41.1233176 C84.0917036,41.4615281 84.0349016,41.7420694 83.9225983,41.9571366 C83.8133303,42.1665669 83.6134392,42.3404418 83.3281283,42.4739916 C83.2357709,42.5173519 83.0029259,42.5845604 82.4179952,42.660441 C81.9397309,42.7224462 81.551656,42.7636385 81.2650443,42.7831507 L81.1640148,42.7900883 L81.1640148,44.0284591 L98.4461375,44.0284591 L98.8515565,37.7542208 L97.6118849,37.7542208 L97.5884703,37.8309685 Z" id="Fill-8" fill="#57585A"></path>
                <path d="M119.713464,38.1733416 C119.486689,38.7985974 119.188804,39.3852626 118.82848,39.9172937 C118.467722,40.4497584 118.044959,40.9301908 117.574066,41.3447154 C117.10404,41.7401615 116.539922,42.0631959 115.898189,42.3042793 C115.257324,42.5449291 114.54448,42.6667716 113.77917,42.6667716 C112.759769,42.6667716 111.824921,42.4369619 111.001075,41.9842801 C110.174193,41.529864 109.447908,40.8907329 108.843032,40.0859653 C108.235554,39.2681897 107.761625,38.3060242 107.433821,37.2250514 C107.105584,36.1423442 106.93908,34.9356265 106.93908,33.6382858 C106.93908,32.1662029 107.098646,30.8137945 107.413008,29.6192177 C107.726503,28.4294105 108.164443,27.4360256 108.713384,26.6672471 C109.288776,25.8733197 109.979506,25.2645408 110.766495,24.8582546 C111.552618,24.452402 112.415055,24.2468741 113.329958,24.2468741 C114.12692,24.2468741 114.8441,24.429421 115.460684,24.7897453 C116.080736,25.151804 116.624475,25.6608541 117.07759,26.3030204 C117.48431,26.8714742 117.845068,27.5773802 118.149457,28.4003591 C118.455147,29.2263732 118.687559,30.0042574 118.840187,30.7118978 L118.858398,30.7973176 L120.245061,30.7973176 L120.112379,23.3540851 L120.110211,23.2474187 L118.782951,23.2474187 L118.214064,24.1922401 C117.493415,23.7625393 116.727672,23.4217272 115.937647,23.179343 C115.109899,22.9265523 114.173749,22.7982058 113.154782,22.7982058 C111.784596,22.7982058 110.479016,23.0648718 109.274033,23.5903988 C108.069484,24.1159259 107.010191,24.8708291 106.124773,25.8351626 C105.230683,26.809469 104.521742,27.9845337 104.018762,29.3291372 C103.514482,30.6733071 103.258656,32.1913519 103.258656,33.8407785 C103.258656,35.4910722 103.519252,36.9952417 104.033505,38.3107938 C104.548192,39.628514 105.24716,40.7602183 106.112199,41.6746874 C106.986343,42.5895902 108.004443,43.3002658 109.137882,43.7872022 C110.271754,44.2745722 111.472401,44.5217261 112.70687,44.5217261 C114.610388,44.5217261 116.277158,44.0742476 117.659919,43.1927322 C119.043547,42.3099161 120.168314,40.8226572 121.003,38.7730148 L121.04159,38.6784893 L119.754656,38.0610384 L119.713464,38.1733416 Z" id="Fill-10" fill="#57585A"></path>
                <path d="M124.221853,29.0437395 L125.42727,29.0437395 L125.449384,28.9639566 C125.53437,28.6521959 125.688733,28.2506793 125.907269,27.7698133 C126.125805,27.2906818 126.381197,26.8301952 126.666942,26.4013617 C126.951819,25.9738289 127.266615,25.5870548 127.602657,25.2510124 C127.926559,24.9275444 128.239187,24.7449974 128.531002,24.709442 C128.931651,24.6621792 129.357883,24.6305262 129.797123,24.6162173 C130.240699,24.6019084 130.610996,24.5945371 130.910182,24.5945371 L131.642105,24.5945371 L131.642105,41.0653882 C131.642105,41.4387206 131.572294,41.738774 131.434409,41.9568764 C131.297824,42.1719436 131.078854,42.3406152 130.781836,42.4576881 C130.57891,42.5405063 130.201675,42.6111836 129.659237,42.6675521 C129.111596,42.7247877 128.695771,42.763812 128.423902,42.7833241 L128.323306,42.7906954 L128.323306,44.0286325 L138.250217,44.0286325 L138.250217,42.7863593 L138.144852,42.7828905 C137.84263,42.7733512 137.41293,42.7109124 136.86659,42.5968747 C136.319816,42.4828371 135.957324,42.3917804 135.793422,42.3280407 C135.48036,42.1940574 135.259656,42.0037056 135.136946,41.7626222 C135.010334,41.5141675 134.945727,41.2353607 134.945727,40.9348737 L134.945727,24.5945371 L135.679818,24.5945371 C136.067025,24.5945371 136.490656,24.60451 136.939001,24.6235885 C137.387347,24.6426671 137.765449,24.6717185 138.060299,24.7090084 C138.355583,24.7536695 138.669945,24.93665 138.996015,25.2523132 C139.33119,25.5775156 139.645986,25.963856 139.931731,26.400928 C140.208369,26.8184879 140.462461,27.2698689 140.687935,27.7429299 C140.91124,28.2133894 141.067771,28.623578 141.152324,28.9617885 L141.172703,29.0437395 L142.365979,29.0437395 L142.365979,23.247332 L124.221853,23.247332 L124.221853,29.0437395 Z" id="Fill-12" fill="#57585A"></path>
                <path d="M207.895823,23.2474621 L207.895823,24.4867 L207.99772,24.4932041 C208.307313,24.511849 208.770401,24.6081089 209.373109,24.7789486 C209.973216,24.948921 210.408554,25.1245303 210.664813,25.2979716 C210.931913,25.4943938 211.14221,25.9045825 211.290069,26.518131 C211.44183,27.1490236 211.518578,28.0691296 211.518578,29.2533 L211.518578,38.7036817 L200.155573,23.2916896 L200.123052,23.2474621 L194.084694,23.2474621 L194.084694,24.4875672 L194.187892,24.4932041 C194.541278,24.511849 195.01564,24.6336915 195.596669,24.8552627 C196.175095,25.0764004 196.638617,25.3448007 196.97466,25.652659 C197.22138,25.8811679 197.421271,26.2124407 197.56913,26.6373719 C197.718723,27.0679399 197.794603,27.5045783 197.794603,27.9355799 L197.794603,38.0654178 C197.794603,39.3948452 197.732164,40.3448698 197.608587,40.8894754 C197.48978,41.4171705 197.268643,41.8134838 196.947776,42.0706105 C196.850649,42.1555968 196.577913,42.2999866 195.831248,42.5042137 C195.222903,42.6702838 194.786698,42.7643756 194.53304,42.7830206 L194.432444,42.7908254 L194.432444,44.0287626 L203.083695,44.0287626 L203.083695,42.7873566 L202.980064,42.7830206 C202.766297,42.7734813 202.310581,42.6772214 201.626355,42.4968425 C200.951668,42.3186316 200.504623,42.1274125 200.293458,41.9257871 C200.002944,41.6716956 199.782674,41.2324555 199.639151,40.6202078 C199.491726,39.9936512 199.417146,39.0804829 199.417146,37.9058518 L199.417146,27.6259872 L211.717602,44.2316889 L213.141555,44.2316889 L213.141555,29.0655498 C213.141555,28.0249021 213.201826,27.1533597 213.321067,26.4760715 C213.435971,25.8221979 213.657109,25.3781882 213.975374,25.1570506 C214.206484,25.0091919 214.60063,24.8630676 215.147403,24.7217129 C215.697212,24.5790575 216.108702,24.5023097 216.370164,24.4932041 L216.474663,24.4893016 L216.474663,23.2474621 L207.895823,23.2474621 Z" id="Fill-14" fill="#57585A"></path>
                <path d="M63.859865,53.0576386 L63.859865,54.844951 L65.4871778,54.844951 C65.7781256,54.844951 66.0040329,54.8054931 66.1662005,54.7265773 C66.4597498,54.5813203 66.6071749,54.3020798 66.6071749,53.8901568 C66.6071749,53.5411062 66.4645195,53.3017572 66.1796422,53.1712427 C66.0205098,53.0983973 65.7976377,53.0606738 65.5101588,53.0576386 L63.859865,53.0576386 Z M63.859865,50.4694611 L63.859865,51.9476144 L65.4893459,51.9476144 C65.7802936,51.9476144 66.0161737,51.8925468 66.1978535,51.781978 C66.3795332,51.6714092 66.4705899,51.4745533 66.4705899,51.1922777 C66.4705899,50.880517 66.3504818,50.6741218 66.1106992,50.5739595 C65.9034369,50.504583 65.638939,50.4694611 65.3180726,50.4694611 L63.859865,50.4694611 Z M67.4999639,50.0189474 C67.7050582,50.3042583 67.8073886,50.645504 67.8073886,51.0426846 C67.8073886,51.452006 67.704191,51.7806772 67.4969287,52.0295654 C67.3815902,52.1691857 67.2107506,52.2962314 66.9857105,52.4115699 C67.3278234,52.536014 67.5862509,52.7328698 67.7601258,53.0030046 C67.9340007,53.2727058 68.0215885,53.6000762 68.0215885,53.9851159 C68.0215885,54.38273 67.9218598,54.7387182 67.7228359,55.0543814 C67.5966574,55.2633781 67.4379586,55.4389874 67.2480404,55.5816428 C67.0342741,55.7455449 66.7814834,55.8574145 66.4905356,55.9185525 C66.2000215,55.9788234 65.8839248,56.0091756 65.5435463,56.0091756 L62.5226328,56.0091756 L62.5226328,49.3052365 L65.7620823,49.3052365 C66.5798579,49.3173774 67.1591518,49.5554256 67.4999639,50.0189474 L67.4999639,50.0189474 Z" id="Fill-16" fill="#57585A"></path>
                <mask id="mask-4" fill="white">
                    <use xlink:href="#path-3"></use>
                </mask>
                <g id="Clip-19"></g>
                <g id="Page-1" mask="url(#mask-4)">
                    <g id="Group-3" transform="translate(0.000000, 29.420860)">
                        <mask id="mask-6" fill="white">
                            <use xlink:href="#path-5"></use>
                        </mask>
                        <g id="Clip-2"></g>
                        <path d="M21.5809104,8.7036096 C21.5809104,8.7036096 43.0252844,1.9314736 44.7278664,10.9317656 C46.4300144,19.9316236 21.8282904,21.5769176 -0.0001736,18.9772576 C-0.0001736,18.9772576 12.8240924,24.6045016 27.0271764,24.6713376 C40.5185004,24.7347016 58.5464264,19.3570076 54.7541344,6.5991436 C53.2828744,1.6506756 44.0569024,-0.5818204 36.5582504,0.6576836 C26.9173744,2.2517656 21.5809104,8.7036096 21.5809104,8.7036096" id="Fill-1" fill="#169E49" mask="url(#mask-6)"></path>
                    </g>
                    <path d="M70.1219876,23.2688232 L70.1219876,24.5070252 L70.2213736,24.5152712 C70.5529496,24.5439152 70.8875636,24.5821072 71.2156676,24.6307152 C71.5372616,24.6780212 71.8588556,24.7500652 72.1695996,24.8438092 C72.4855516,24.9462332 72.7407436,25.0699232 72.9282316,25.2118412 C73.0992276,25.3411732 73.1825556,25.4956772 73.1825556,25.6835992 C73.1825556,25.8867112 73.1560816,26.1592632 73.1040016,26.4934432 C73.0514876,26.8263212 72.8653016,27.4347892 72.5510856,28.3023552 C72.2203776,29.2150572 71.5715476,30.9041852 70.6219556,33.3224332 C69.7118576,35.6412952 68.8942016,37.6867372 68.1893856,39.4084152 C66.7567516,35.5761952 65.6478816,32.6111072 64.8627756,30.5144532 C64.0603096,28.3709272 63.4800516,26.8250192 63.1237376,25.8815032 C63.0950936,25.7960052 63.0616756,25.6822972 63.0243516,25.5395112 C62.9878956,25.4045372 62.9696676,25.2869232 62.9696676,25.1905752 C62.9696676,24.9792172 63.1923096,24.8242792 63.6306496,24.7309692 C64.1206356,24.6259412 64.7325756,24.5534632 65.4491096,24.5157052 L65.5519676,24.5100632 L65.5519676,23.2688232 L56.8172836,23.2688232 L56.8172836,24.5083272 L56.9184056,24.5157052 C57.1818436,24.5343672 57.4726236,24.5842772 57.7838016,24.6645672 C58.0906396,24.7435552 58.3731736,24.8633392 58.6227236,25.0208812 C58.9312976,25.2170492 59.1817156,25.4271052 59.3674676,25.6454072 C59.5523516,25.8624072 59.7020816,26.1175992 59.8127516,26.4040392 C60.2745276,27.6153332 61.1377536,29.9159672 62.4523396,33.4383112 C63.7482636,36.9103112 65.0923616,40.5172852 66.4850676,44.2592332 L66.5111076,44.3299752 L67.8647536,44.3299752 L67.8916616,44.2609692 C69.2552896,40.7555512 70.6019916,37.3325932 71.8948776,34.0858392 C73.1855936,30.8455952 74.1659996,28.4277812 74.8087536,26.9027052 C74.9992796,26.4739132 75.1945796,26.0976352 75.3894456,25.7842872 C75.5782356,25.4809212 75.8321256,25.2292012 76.1450396,25.0356372 C76.3676816,24.8967572 76.6558576,24.7765392 77.0021896,24.6784552 C77.3506916,24.5795032 77.6497176,24.5248192 77.8905876,24.5157052 L77.9951816,24.5117992 L77.9951816,23.2688232 L70.1219876,23.2688232 Z" id="Fill-4" fill="#57585A"></path>
                    <path d="M97.677776,37.8656754 C97.544538,38.3027134 97.232492,38.9966794 96.74945,39.9289114 C96.268578,40.8581054 95.803764,41.5598834 95.367594,42.0147154 C95.217864,42.1731254 94.95486,42.3020234 94.585092,42.3975034 C94.200134,42.4973234 93.82212,42.5671974 93.4619,42.6049554 C93.11036,42.6431474 92.66985,42.6626774 92.15339,42.6626774 L90.891752,42.6626774 C90.09623,42.6626774 89.476044,42.6362034 89.04812,42.5836894 C88.63365,42.5333454 88.304244,42.4209394 88.069016,42.2486414 C87.839864,42.0815514 87.68319,41.8298314 87.6029,41.4999914 C87.517836,41.1519234 87.475304,40.6684474 87.475304,40.0625834 L87.475304,34.0022074 L89.687402,34.0022074 C90.30238,34.0022074 90.801914,34.0590614 91.171682,34.1714674 C91.5306,34.2804014 91.856534,34.5173654 92.141238,34.8749814 C92.31614,35.0958874 92.488004,35.4626174 92.652056,35.9656234 C92.817844,36.4716674 92.92157,36.9590494 92.959328,37.4134474 L92.967574,37.5128334 L94.263932,37.5128334 L94.263932,29.2303774 L92.970612,29.2303774 L92.959328,29.3262914 C92.912456,29.7329494 92.813938,30.1725914 92.666812,30.6330654 C92.520988,31.0883314 92.343482,31.4554954 92.141238,31.7232734 C91.892556,32.0357534 91.602644,32.2609994 91.278446,32.3933694 C90.949908,32.5279094 90.414786,32.5956134 89.687402,32.5956134 L87.475304,32.5956134 L87.475304,24.6317134 L90.601406,24.6317134 C91.127414,24.6317134 91.603946,24.6412614 92.017982,24.6603574 C92.42898,24.6794534 92.78703,24.7085314 93.08215,24.7467234 C93.630292,24.8196354 94.224004,25.2623154 94.845926,26.0621774 C95.476528,26.8733234 95.8923,27.6484474 96.08109,28.3654154 L96.102356,28.4465734 L97.382222,28.4465734 L97.382222,23.2689534 L81.23829,23.2689534 L81.23829,24.5080234 L81.338978,24.5154014 C81.593302,24.5340634 81.941804,24.5922194 82.37537,24.6872654 C82.80503,24.7814434 83.150928,24.8908114 83.405252,25.0136334 C83.716864,25.1559854 83.923014,25.3395674 84.017626,25.5600394 C84.11788,25.7917954 84.168658,26.0626114 84.168658,26.3651094 L84.168658,41.1610374 C84.168658,41.4995574 84.111804,41.7803554 83.999398,41.9956194 C83.89003,42.2052414 83.689956,42.3792754 83.404384,42.5129474 C83.311942,42.5563474 83.078884,42.6236174 82.493418,42.6995674 C82.014716,42.7616294 81.626286,42.8028594 81.339412,42.8223894 L81.23829,42.8293334 L81.23829,44.0688374 L98.536228,44.0688374 L98.942018,37.7888574 L97.701212,37.7888574 L97.677776,37.8656754 Z" id="Fill-6" fill="#57585A"></path>
                    <path d="M119.823017,38.2083184 C119.596035,38.8341464 119.297877,39.4213484 118.937223,39.9538664 C118.576135,40.4868184 118.152985,40.9676904 117.681661,41.3825944 C117.211205,41.7784024 116.646571,42.1017324 116.004251,42.3430364 C115.362799,42.5839064 114.649303,42.7058604 113.883293,42.7058604 C112.862959,42.7058604 111.927255,42.4758404 111.102655,42.0227444 C110.275017,41.5679124 109.548067,40.9281964 108.942637,40.1226924 C108.334603,39.3041684 107.860241,38.3411224 107.532137,37.2591604 C107.203599,36.1754624 107.036943,34.9676404 107.036943,33.6691124 C107.036943,32.1956824 107.196655,30.8420364 107.511305,29.6463664 C107.825087,28.4554704 108.263427,27.4611764 108.812871,26.6916944 C109.388789,25.8970404 110.080151,25.2877044 110.867861,24.8810464 C111.654703,24.4748224 112.517929,24.2691064 113.433669,24.2691064 C114.231361,24.2691064 114.949197,24.4518204 115.566345,24.8124744 C116.186965,25.1748644 116.731201,25.6843804 117.184731,26.3271344 C117.591823,26.8961084 117.952911,27.6026604 118.257579,28.4263924 C118.563549,29.2531624 118.796173,30.0317584 118.948941,30.7400464 L118.967169,30.8255444 L120.355101,30.8255444 L120.222297,23.3755004 L120.220127,23.2687364 L118.891653,23.2687364 L118.322245,24.2144224 C117.600937,23.7843284 116.834493,23.4432044 116.043745,23.2005984 C115.215239,22.9475764 114.278233,22.8191124 113.258333,22.8191124 C111.886893,22.8191124 110.580119,23.0860224 109.374033,23.6120304 C108.168381,24.1380384 107.108119,24.8936324 106.221891,25.8588484 C105.326983,26.8340464 104.617393,28.0101864 104.113953,29.3560204 C103.609211,30.7014204 103.353151,32.2208544 103.353151,33.8717904 C103.353151,35.5235944 103.613985,37.0291404 104.128709,38.3458964 C104.643867,39.6648224 105.343475,40.7975624 106.209305,41.7128684 C107.084249,42.6286084 108.103281,43.3399344 109.237757,43.8273164 C110.372667,44.3151324 111.574413,44.5625124 112.810011,44.5625124 C114.715271,44.5625124 116.383567,44.1146244 117.767593,43.2323024 C119.152487,42.3486784 120.278283,40.8600584 121.113733,38.8085404 L121.152359,38.7139284 L119.864247,38.0959124 L119.823017,38.2083184 Z" id="Fill-8" fill="#57585A"></path>
                    <path d="M124.335532,29.0703616 L125.542052,29.0703616 L125.564186,28.9905056 C125.64925,28.6784596 125.803754,28.2765756 126.02249,27.7952696 C126.241226,27.3156996 126.496852,26.8547916 126.782858,26.4255656 C127.067996,25.9976416 127.38308,25.6105136 127.71943,25.2741636 C128.043628,24.9503996 128.356542,24.7676856 128.648624,24.7320976 C129.04964,24.6847916 129.476262,24.6531096 129.915904,24.6387876 C130.359886,24.6244656 130.730522,24.6170876 131.029982,24.6170876 L131.762574,24.6170876 L131.762574,41.1030116 C131.762574,41.4766856 131.6927,41.7770136 131.554688,41.9953156 C131.417978,42.2105796 131.198808,42.3794056 130.901518,42.4965856 C130.698406,42.5794796 130.320826,42.6502216 129.777892,42.7066416 C129.22975,42.7639296 128.813544,42.8029896 128.541426,42.8225196 L128.440738,42.8298976 L128.440738,44.0689676 L138.376734,44.0689676 L138.376734,42.8255576 L138.271272,42.8220856 C137.968774,42.8125376 137.53868,42.7500416 136.99184,42.6358996 C136.444566,42.5217576 136.081742,42.4306176 135.91769,42.3668196 C135.604342,42.2327136 135.383436,42.0421876 135.260614,41.8008836 C135.133886,41.5522016 135.06922,41.2731396 135.06922,40.9723776 L135.06922,24.6170876 L135.803982,24.6170876 C136.191544,24.6170876 136.615562,24.6270696 137.064318,24.6461656 C137.513074,24.6652616 137.891522,24.6943396 138.186642,24.7316636 C138.482196,24.7763656 138.796846,24.9595136 139.123214,25.2754656 C139.458696,25.6009656 139.77378,25.9876596 140.059786,26.4251316 C140.336678,26.8430736 140.591002,27.2948676 140.816682,27.7683616 C141.040192,28.2392516 141.196866,28.6498156 141.281496,28.9883356 L141.301894,29.0703616 L142.496262,29.0703616 L142.496262,23.2686496 L124.335532,23.2686496 L124.335532,29.0703616 Z" id="Fill-10" fill="#57585A"></path>
                    <path d="M208.086074,23.2688232 L208.086074,24.5091952 L208.188064,24.5157052 C208.49794,24.5343672 208.961452,24.6307152 209.564712,24.8017112 C210.165368,24.9718392 210.601104,25.1476092 210.857598,25.3212092 C211.124942,25.5178112 211.335432,25.9283752 211.483426,26.5424852 C211.635326,27.1739552 211.712144,28.0949032 211.712144,29.2801572 L211.712144,38.7391872 L200.33874,23.3130912 L200.30619,23.2688232 L194.262306,23.2688232 L194.262306,24.5100632 L194.365598,24.5157052 C194.719308,24.5343672 195.194104,24.6563212 195.775664,24.8780952 C196.35462,25.0994352 196.818566,25.3680812 197.154916,25.6762212 C197.401862,25.9049392 197.601936,26.2365152 197.74993,26.6618352 C197.89966,27.0927972 197.97561,27.5298352 197.97561,27.9612312 L197.97561,38.1003392 C197.97561,39.4309832 197.913114,40.3818772 197.789424,40.9269812 C197.670508,41.4551592 197.449168,41.8518352 197.128008,42.1091972 C197.030792,42.1942612 196.757806,42.3387832 196.010458,42.5431972 C195.401556,42.7094192 194.964952,42.8035972 194.711062,42.8222592 L194.610374,42.8300712 L194.610374,44.0691412 L203.269542,44.0691412 L203.269542,42.8265992 L203.165816,42.8222592 C202.951854,42.8127112 202.49572,42.7163632 201.810868,42.5358192 C201.135564,42.3574452 200.68811,42.1660512 200.476752,41.9642412 C200.185972,41.7099172 199.9655,41.2702752 199.821846,40.6574672 C199.674286,40.0303372 199.599638,39.1163332 199.599638,37.9406272 L199.599638,27.6513552 L211.91135,44.2722532 L213.336606,44.2722532 L213.336606,29.0922352 C213.336606,28.0506352 213.396932,27.1782952 213.516282,26.5003872 C213.631292,25.8459152 213.852632,25.4014992 214.171188,25.1801592 C214.40251,25.0321652 214.797016,24.8859072 215.34429,24.7444232 C215.894602,24.6016372 216.306468,24.5248192 216.56817,24.5157052 L216.672764,24.5117992 L216.672764,23.2688232 L208.086074,23.2688232 Z" id="Fill-12" fill="#57585A"></path>
                    <path d="M63.9183048,53.1062364 L63.9183048,54.8951844 L65.5471068,54.8951844 C65.8383208,54.8951844 66.0644348,54.8556904 66.2267508,54.7767024 C66.5205688,54.6313124 66.6681288,54.3518164 66.6681288,53.9395164 C66.6681288,53.5901464 66.5253428,53.3505784 66.2402048,53.2199444 C66.0809268,53.1470324 65.8578508,53.1092744 65.5701088,53.1062364 L63.9183048,53.1062364 Z M63.9183048,50.5156904 L63.9183048,51.9951964 L65.5492768,51.9951964 C65.8404908,51.9951964 66.0765868,51.9400784 66.2584328,51.8294084 C66.4402788,51.7187384 66.5314188,51.5217024 66.5314188,51.2391684 C66.5314188,50.9271224 66.4112008,50.7205384 66.1711988,50.6202844 C65.9637468,50.5508444 65.6990068,50.5156904 65.3778468,50.5156904 L63.9183048,50.5156904 Z M67.5617348,50.0647644 C67.7670168,50.3503364 67.8694408,50.6918944 67.8694408,51.0894384 C67.8694408,51.4991344 67.7661488,51.8281064 67.5586968,52.0772224 C67.4432528,52.2169704 67.2722568,52.3441324 67.0470108,52.4595764 C67.3894368,52.5841344 67.6481008,52.7811704 67.8221348,53.0515524 C67.9961688,53.3215004 68.0838368,53.6491704 68.0838368,54.0345624 C68.0838368,54.4325404 67.9840168,54.7888544 67.7848108,55.1048064 C67.6585168,55.3139944 67.4996728,55.4897644 67.3095808,55.6325504 C67.0956188,55.7966024 66.8425968,55.9085744 66.5513828,55.9697684 C66.2606028,56.0300944 65.9442168,56.0604744 65.6035268,56.0604744 L62.5798488,56.0604744 L62.5798488,49.3504004 L65.8222628,49.3504004 C66.6407868,49.3625524 67.2206108,49.6008184 67.5617348,50.0647644 L67.5617348,50.0647644 Z" id="Fill-14" fill="#57585A"></path>
                    <mask id="mask-8" fill="white">
                        <use xlink:href="#path-7"></use>
                    </mask>
                    <g id="Clip-17"></g>
                    <polygon id="Fill-16" fill="#57585A" mask="url(#mask-8)" points="76.584074 56.060648 77.977214 56.060648 77.977214 49.350574 76.584074 49.350574"></polygon>
                    <path d="M91.0186102,54.4446056 C91.3449782,54.0344756 91.5085962,53.4520476 91.5085962,52.6960196 C91.5085962,51.9438976 91.3449782,51.3619036 91.0186102,50.9509056 C90.6926762,50.5390396 90.2517322,50.3337576 89.6962122,50.3337576 C89.1411262,50.3337576 88.6975782,50.5386056 88.3668702,50.9483016 C88.0361622,51.3579976 87.8708082,51.9404256 87.8708082,52.6960196 C87.8708082,53.4520476 88.0361622,54.0344756 88.3668702,54.4446056 C88.6975782,54.8543016 89.1411262,55.0591496 89.6962122,55.0591496 C90.2517322,55.0591496 90.6926762,54.8543016 91.0186102,54.4446056 M91.8952902,55.4645056 C91.3883782,55.9861736 90.6553522,56.2470076 89.6962122,56.2470076 C88.7375062,56.2470076 88.0044802,55.9861736 87.4975682,55.4645056 C86.8179242,54.8234876 86.4781022,53.9012376 86.4781022,52.6960196 C86.4781022,51.4669316 86.8179242,50.5446816 87.4975682,49.9284016 C88.0044802,49.4062996 88.7375062,49.1458996 89.6962122,49.1458996 C90.6553522,49.1458996 91.3883782,49.4062996 91.8952902,49.9284016 C92.5714622,50.5446816 92.9099822,51.4669316 92.9099822,52.6960196 C92.9099822,53.9012376 92.5714622,54.8234876 91.8952902,55.4645056" id="Fill-18" fill="#57585A" mask="url(#mask-8)"></path>
                    <path d="M102.749066,53.9891226 C102.792466,54.2955266 102.87753,54.5246786 103.004692,54.6765786 C103.236882,54.9526026 103.635294,55.0910486 104.19906,55.0910486 C104.537146,55.0910486 104.811434,55.0541586 105.021924,54.9816806 C105.421638,54.8419326 105.621712,54.5824006 105.621712,54.2035186 C105.621712,53.9817446 105.523628,53.8103146 105.32746,53.6887946 C105.131726,53.5703126 104.821416,53.4652846 104.39653,53.3745786 L103.66958,53.2153006 C102.95565,53.0573246 102.46523,52.8863286 102.19832,52.7010106 C101.745658,52.3911346 101.519978,51.9072246 101.519978,51.2484126 C101.519978,50.6481906 101.740884,50.1486566 102.183564,49.7511126 C102.62581,49.3535686 103.275508,49.1543626 104.133092,49.1543626 C104.848324,49.1543626 105.458962,49.3418506 105.964572,49.7168266 C106.470182,50.0913686 106.735356,50.6360386 106.75966,51.3486666 L105.41209,51.3486666 C105.386918,50.9454806 105.206808,50.6586066 104.870892,50.4884786 C104.646948,50.3760726 104.36832,50.3200866 104.035008,50.3200866 C103.66524,50.3200866 103.369252,50.3925646 103.148346,50.5388226 C102.92744,50.6842126 102.817204,50.8873246 102.817204,51.1485926 C102.817204,51.3881606 102.926138,51.5674026 103.144006,51.6854506 C103.283754,51.7644386 103.581044,51.8573146 104.035876,51.9632106 L105.212884,52.2414046 C105.72891,52.3624906 106.115604,52.5252406 106.3734,52.7279186 C106.773548,53.0438706 106.973622,53.5008726 106.973622,54.0984906 C106.973622,54.7112986 106.736658,55.2208146 106.26273,55.6257366 C105.788368,56.0310926 105.11914,56.2337706 104.254178,56.2337706 C103.370988,56.2337706 102.676154,56.0341306 102.169676,55.6348506 C101.663632,55.2355706 101.41061,54.6874286 101.41061,53.9891226 L102.749066,53.9891226 Z" id="Fill-19" fill="#57585A" mask="url(#mask-8)"></path>
                    <path d="M120.014801,54.4446056 C120.341169,54.0344756 120.504787,53.4520476 120.504787,52.6960196 C120.504787,51.9438976 120.341169,51.3619036 120.014801,50.9509056 C119.688867,50.5390396 119.247923,50.3337576 118.692403,50.3337576 C118.137317,50.3337576 117.693769,50.5386056 117.363061,50.9483016 C117.032353,51.3579976 116.866999,51.9404256 116.866999,52.6960196 C116.866999,53.4520476 117.032353,54.0344756 117.363061,54.4446056 C117.693769,54.8543016 118.137317,55.0591496 118.692403,55.0591496 C119.247923,55.0591496 119.688867,54.8543016 120.014801,54.4446056 M120.891481,55.4645056 C120.384569,55.9861736 119.651543,56.2470076 118.692403,56.2470076 C117.733697,56.2470076 117.000671,55.9861736 116.493759,55.4645056 C115.814115,54.8234876 115.474293,53.9012376 115.474293,52.6960196 C115.474293,51.4669316 115.814115,50.5446816 116.493759,49.9284016 C117.000671,49.4062996 117.733697,49.1458996 118.692403,49.1458996 C119.651543,49.1458996 120.384569,49.4062996 120.891481,49.9284016 C121.567653,50.5446816 121.906173,51.4669316 121.906173,52.6960196 C121.906173,53.9012376 121.567653,54.8234876 120.891481,55.4645056" id="Fill-20" fill="#57585A" mask="url(#mask-8)"></path>
                    <polygon id="Fill-21" fill="#57585A" mask="url(#mask-8)" points="130.406888 49.3502702 131.809142 49.3502702 131.809142 54.8542582 135.159188 54.8542582 135.159188 56.0603442 130.406888 56.0603442"></polygon>
                    <path d="M143.659902,49.3502702 L145.084724,49.3502702 L145.084724,53.4711002 C145.084724,53.9324422 145.138974,54.2692262 145.247908,54.4814522 C145.417602,54.8577302 145.786502,55.0452182 146.354608,55.0452182 C146.92011,55.0452182 147.287708,54.8577302 147.456968,54.4814522 C147.565902,54.2692262 147.620586,53.9324422 147.620586,53.4711002 L147.620586,49.3502702 L149.045408,49.3502702 L149.045408,53.4745722 C149.045408,54.1876342 148.934738,54.7435882 148.713832,55.1406982 C148.301098,55.8693842 147.515124,56.2335102 146.354608,56.2335102 C145.194092,56.2335102 144.406382,55.8693842 143.991478,55.1406982 C143.770138,54.7435882 143.659902,54.1876342 143.659902,53.4745722 L143.659902,49.3502702 Z" id="Fill-22" fill="#57585A" mask="url(#mask-8)"></path>
                    <polygon id="Fill-23" fill="#57585A" mask="url(#mask-8)" points="162.981105 49.3502702 162.981105 50.5385622 160.973421 50.5385622 160.973421 56.0603442 159.562487 56.0603442 159.562487 50.5385622 157.546123 50.5385622 157.546123 49.3502702"></polygon>
                    <polygon id="Fill-24" fill="#57585A" mask="url(#mask-8)" points="171.481646 56.060648 172.874786 56.060648 172.874786 49.350574 171.481646 49.350574"></polygon>
                    <path d="M185.915922,54.4446056 C186.24229,54.0344756 186.405908,53.4520476 186.405908,52.6960196 C186.405908,51.9438976 186.24229,51.3619036 185.915922,50.9509056 C185.589988,50.5390396 185.149044,50.3337576 184.593524,50.3337576 C184.038438,50.3337576 183.59489,50.5386056 183.264182,50.9483016 C182.933474,51.3579976 182.76812,51.9404256 182.76812,52.6960196 C182.76812,53.4520476 182.933474,54.0344756 183.264182,54.4446056 C183.59489,54.8543016 184.038438,55.0591496 184.593524,55.0591496 C185.149044,55.0591496 185.589988,54.8543016 185.915922,54.4446056 M186.792602,55.4645056 C186.28569,55.9861736 185.552664,56.2470076 184.593524,56.2470076 C183.634818,56.2470076 182.901792,55.9861736 182.39488,55.4645056 C181.715236,54.8234876 181.375414,53.9012376 181.375414,52.6960196 C181.375414,51.4669316 181.715236,50.5446816 182.39488,49.9284016 C182.901792,49.4062996 183.634818,49.1458996 184.593524,49.1458996 C185.552664,49.1458996 186.28569,49.4062996 186.792602,49.9284016 C187.468774,50.5446816 187.807294,51.4669316 187.807294,52.6960196 C187.807294,53.9012376 187.468774,54.8234876 186.792602,55.4645056" id="Fill-25" fill="#57585A" mask="url(#mask-8)"></path>
                    <polygon id="Fill-26" fill="#57585A" mask="url(#mask-8)" points="196.308008 49.3502702 197.777966 49.3502702 200.441424 54.0292242 200.441424 49.3502702 201.748198 49.3502702 201.748198 56.0603442 200.345944 56.0603442 197.614348 51.2993642 197.614348 56.0603442 196.308008 56.0603442"></polygon>
                    <path d="M211.586978,53.9891226 C211.630378,54.2955266 211.715442,54.5246786 211.842604,54.6765786 C212.074794,54.9526026 212.473206,55.0910486 213.036972,55.0910486 C213.375058,55.0910486 213.649346,55.0541586 213.859836,54.9816806 C214.25955,54.8419326 214.459624,54.5824006 214.459624,54.2035186 C214.459624,53.9817446 214.36154,53.8103146 214.165372,53.6887946 C213.969638,53.5703126 213.659328,53.4652846 213.234442,53.3745786 L212.507492,53.2153006 C211.793562,53.0573246 211.303142,52.8863286 211.036232,52.7010106 C210.58357,52.3911346 210.35789,51.9072246 210.35789,51.2484126 C210.35789,50.6481906 210.578796,50.1486566 211.021476,49.7511126 C211.463722,49.3535686 212.11342,49.1543626 212.971004,49.1543626 C213.686236,49.1543626 214.296874,49.3418506 214.802484,49.7168266 C215.308094,50.0913686 215.573268,50.6360386 215.597572,51.3486666 L214.250002,51.3486666 C214.22483,50.9454806 214.04472,50.6586066 213.708804,50.4884786 C213.48486,50.3760726 213.206232,50.3200866 212.87292,50.3200866 C212.503152,50.3200866 212.207164,50.3925646 211.986258,50.5388226 C211.765352,50.6842126 211.655116,50.8873246 211.655116,51.1485926 C211.655116,51.3881606 211.76405,51.5674026 211.981918,51.6854506 C212.121666,51.7644386 212.418956,51.8573146 212.873788,51.9632106 L214.050796,52.2414046 C214.566822,52.3624906 214.953516,52.5252406 215.211312,52.7279186 C215.61146,53.0438706 215.811534,53.5008726 215.811534,54.0984906 C215.811534,54.7112986 215.57457,55.2208146 215.100642,55.6257366 C214.62628,56.0310926 213.957052,56.2337706 213.09209,56.2337706 C212.2089,56.2337706 211.514066,56.0341306 211.007588,55.6348506 C210.501544,55.2355706 210.248522,54.6874286 210.248522,53.9891226 L211.586978,53.9891226 Z" id="Fill-27" fill="#57585A" mask="url(#mask-8)"></path>
                    <path d="M186.053804,37.3950024 C185.810764,38.4908524 185.41756,39.4847124 184.885476,40.3501084 L184.884608,40.3509764 C184.374658,41.2011824 183.704128,41.8717124 182.892114,42.3434704 C182.080968,42.8152284 181.157416,43.0543624 180.147498,43.0543624 C179.07031,43.0543624 178.132436,42.8182664 177.36035,42.3517164 C176.586094,41.8842984 175.934226,41.2254864 175.423408,40.3926404 C174.89089,39.5372264 174.495516,38.5433664 174.248136,37.4384024 C173.999454,36.3308344 173.873594,35.0700644 173.873594,33.6903784 C173.873594,32.4461004 173.992076,31.2434864 174.226436,30.1155204 C174.459928,28.9905924 174.81928,27.9958644 175.294944,27.1595464 C175.796214,26.2885084 176.45329,25.5836924 177.24751,25.0633264 C178.038258,24.5459984 179.01389,24.2834284 180.147498,24.2834284 C181.158284,24.2834284 182.06708,24.5104104 182.849582,24.9582984 C183.633386,25.4066204 184.294368,26.0415624 184.813866,26.8444624 C185.336402,27.6616844 185.73872,28.6655264 186.010404,29.8277784 C186.282956,30.9935024 186.421402,32.2928984 186.421402,33.6903784 C186.421402,35.0496664 186.297712,36.2956804 186.053804,37.3950024 M189.372168,29.2058564 C188.857444,27.8595884 188.13223,26.6929964 187.217358,25.7394984 C186.331564,24.8046624 185.26566,24.0690324 184.04829,23.5530064 C182.831354,23.0369804 181.518938,22.7752784 180.147498,22.7752784 C178.824232,22.7752784 177.538724,23.0322064 176.326562,23.5382504 C175.1144,24.0447284 174.03591,24.7851324 173.120604,25.7390644 C172.196618,26.7025444 171.461856,27.8587204 170.93715,29.1754764 C170.41201,30.4922324 170.145968,32.0112324 170.145968,33.6903784 C170.145968,35.2241344 170.399858,36.6836764 170.899826,38.0290764 C171.400228,39.3757784 172.098534,40.5371624 172.973912,41.4806784 C173.850158,42.4445924 174.914326,43.2075644 176.135602,43.7478944 C177.358614,44.2882244 178.708354,44.5625124 180.147498,44.5625124 C181.498974,44.5625124 182.791426,44.3055844 183.990134,43.7995404 C185.18754,43.2930624 186.253878,42.5622064 187.1579,41.6286724 C188.092302,40.6851564 188.832272,39.5259424 189.357412,38.1835804 C189.882118,36.8425204 190.148594,35.3308984 190.148594,33.6903784 C190.148594,32.0598404 189.887326,30.5508224 189.372168,29.2058564" id="Fill-28" fill="#57585A" mask="url(#mask-8)"></path>
                    <path d="M157.856086,32.026596 C156.991558,32.856838 155.893972,33.277384 154.594576,33.277384 L152.803024,33.277384 L152.803024,24.67507 L155.160512,24.67507 C156.429528,24.67507 157.423822,25.031818 158.11475,25.735766 C158.806112,26.440582 159.157218,27.41144 159.157218,28.621432 C159.157218,30.051028 158.719312,31.196788 157.856086,32.026596 L157.856086,32.026596 Z M166.899778,42.822346 C166.6537,42.812798 166.34122,42.774172 165.971452,42.70777 C165.606024,42.642236 165.298752,42.548058 165.059618,42.42784 C164.729778,42.25858 164.391692,42.035504 164.054908,41.765556 C163.720728,41.49691 163.339242,41.072024 162.9213,40.501748 C161.9448,39.186728 161.1202,38.070046 160.448802,37.151702 C159.801274,36.26721 158.981882,35.167454 158.010156,33.880644 C158.690234,33.675796 159.323006,33.427982 159.89415,33.141976 C160.509996,32.83427 161.04642,32.464502 161.486496,32.043522 C161.969972,31.589992 162.33974,31.044888 162.586686,30.4234 C162.83233,29.804082 162.956888,29.083208 162.956888,28.280308 C162.956888,27.384966 162.77157,26.608106 162.405708,25.97056 C162.041582,25.33475 161.546388,24.812214 160.934448,24.417274 C160.307318,24.015824 159.598162,23.720704 158.826076,23.539726 C158.057896,23.36005 157.224616,23.26891 156.350106,23.26891 L146.740478,23.26891 L146.740478,24.508414 L146.841166,24.515358 C147.105906,24.534454 147.433576,24.580024 147.815496,24.651634 C148.194378,24.722376 148.50599,24.801798 148.739482,24.88556 C149.065416,25.00925 149.273736,25.187624 149.358366,25.416776 C149.44994,25.66459 149.496378,25.954502 149.496378,26.278266 L149.496378,41.160994 C149.496378,41.518176 149.435184,41.813296 149.313664,42.037674 C149.195616,42.25641 149.001184,42.42567 148.73384,42.541548 C148.570656,42.614026 148.27163,42.674352 147.845442,42.721224 C147.406668,42.769398 147.071186,42.80325 146.839864,42.822346 L146.740478,42.831026 L146.740478,44.069228 L155.66048,44.069228 L155.66048,42.825384 L155.555452,42.822346 C155.261634,42.812798 154.89447,42.778512 154.464376,42.721658 C154.039924,42.665238 153.741332,42.60361 153.575544,42.539378 C153.256988,42.415688 153.048234,42.238182 152.954056,42.011634 C152.854236,41.769896 152.803024,41.48389 152.803024,41.160994 L152.803024,34.742134 L154.749948,34.742134 C155.887896,36.204714 156.960744,37.648198 157.938112,39.033092 C158.922858,40.427534 160.040842,42.104944 161.261684,44.018884 L161.2938,44.069228 L167.003938,44.069228 L167.003938,42.826252 L166.899778,42.822346 Z" id="Fill-29" fill="#57585A" mask="url(#mask-8)"></path>
                    <path d="M33.8523038,48.28684 C34.5154558,45.824324 34.8904318,43.143506 34.9490218,40.600266 C35.1747018,30.830926 29.9979498,23.39477 29.9979498,23.39477 C29.9979498,23.39477 33.8349438,46.665416 24.6753738,46.665416 C15.5158038,46.665416 19.3527978,21.166614 24.0564898,-1.23350219e-14 C24.0564898,-1.23350219e-14 17.4484058,13.907096 14.7432838,27.850648 C13.3622958,34.968682 13.0836678,43.40651 15.1755478,49.48034 C22.1373418,49.634844 28.6877038,49.271586 33.8523038,48.28684" id="Fill-30" fill="#7DC46E" mask="url(#mask-8)"></path>
                    <path d="M27.0272198,54.0921108 C23.5361238,54.0756188 20.1300918,53.7223428 16.9757798,53.2002408 C19.0251278,56.2529968 22.1429838,58.0198108 26.6557158,57.5580348 C28.5956958,57.3592628 30.2275358,55.9748028 31.5173838,53.9198128 C29.9901378,54.0422008 28.4824218,54.0990548 27.0272198,54.0921108" id="Fill-31" fill="#7DC46E" mask="url(#mask-8)"></path>
                </g>
            </g>
        </g>
    </g>
</svg>